/* XPM */
static char *_____________[] = {
/* columns rows colors chars-per-pixel */
"16 16 92 1",
"  c #2E3530",
". c #2E3632",
"X c #323A35",
"o c #39403B",
"O c #3C4441",
"+ c #414945",
"@ c #484F4C",
"# c #4F5551",
"$ c #585F5D",
"% c #5A615F",
"& c #5C6363",
"* c #5F6561",
"= c #656B67",
"- c #686E6F",
"; c #697071",
": c #6E7576",
"> c #767D7E",
", c #7C8283",
"< c #7F8480",
"1 c #7A8184",
"2 c #7C8385",
"3 c #7E8485",
"4 c #868C8A",
"5 c #878D8D",
"6 c #8A8F8E",
"7 c #8D918E",
"8 c #878E91",
"9 c #898F92",
"0 c #929794",
"q c #929797",
"w c #949897",
"e c #91979B",
"r c #92999E",
"t c #959A9F",
"y c #959BA2",
"u c #9EA2A1",
"i c #9DA2A7",
"p c #9CA2A8",
"a c #9EA4A9",
"s c #9FA6AD",
"d c #A2A5A2",
"f c #A0A5AC",
"g c #A7AAA8",
"h c #A1A8AE",
"j c #A5AAAD",
"k c #A9ADAB",
"l c #ABAEAC",
"z c #A5ABB1",
"x c #A7ADB3",
"c c #A7ADB4",
"v c #A9AEB6",
"b c #AAB0B7",
"n c #AEB3B7",
"m c #ABB1B8",
"M c #AEB4BB",
"N c #AFB5BD",
"B c #B6B9B6",
"V c #B0B5BD",
"C c #B5B9BA",
"Z c #B2B8BF",
"A c #B8BAB8",
"S c #B2B8C0",
"D c #B4BAC3",
"F c #B5BBC3",
"G c #B6BCC3",
"H c #B7BCC5",
"J c #B9BDC0",
"K c #B9BEC5",
"L c #BAC0C8",
"P c #BBC0C8",
"I c #BDC3CB",
"U c #BEC4CC",
"Y c #BFC4CC",
"T c #C0C3C0",
"R c #C4C6C4",
"E c #C4C7C9",
"W c #C1C6CF",
"Q c #C8CAC9",
"! c #CBCDCB",
"~ c #CACDCF",
"^ c #C3C8D0",
"/ c #C3C8D1",
"( c #D5D6D4",
") c #DCDDDC",
"_ c #D6DBE3",
"` c #E3E4E4",
"' c #E4E5E4",
"] c #E8E8E7",
"[ c #F1F2F0",
"{ c #F6F6F6",
"} c #FCFCFB",
"| c #FFFFFF",
/* pixels */
"|||T(]}|||||||||",
"||6Vpr11,5wtugB|",
"||3IGFFHycFFHVP=",
"||8FNNNNpbVNZKIo",
"|RfSVNmSKFFVNHx#",
"|kFvNc~EJnpFNF9<",
"|qFfHs||||2FvK%k",
"|:FvKx|||'izMI+)",
"[rZVFZ|||TGxFvX|",
"RxZNFatjC4WFMe*|",
"uIZMVKVx/YFVF>d|",
"w/FVVVczKSVNH-!|",
"3_/PHHvNSVNNYo{|",
"k @&;>9pzZPYI ||",
"||`QAlw7<;=$oq||",
"||||||||||||||||"
};
