/* XPM */
static char *_____________[] = {
/* columns rows colors chars-per-pixel */
"82 82 125 2",
"   c #1F2720",
".  c #232B25",
"X  c #262E28",
"o  c #2A322D",
"O  c #2E3631",
"+  c #2F3834",
"@  c #333B35",
"#  c #363D39",
"$  c #383F3B",
"%  c #37403A",
"&  c #3A423D",
"*  c #3E4541",
"=  c #3F4843",
"-  c #404743",
";  c #424A46",
":  c #464D49",
">  c #484F4B",
",  c #47504E",
"<  c #4A514D",
"1  c #484F52",
"2  c #4D5551",
"3  c #4F5758",
"4  c #505754",
"5  c #525956",
"6  c #555C5A",
"7  c #585F5D",
"8  c #5A615E",
"9  c #575E60",
"0  c #5D6462",
"q  c #606765",
"w  c #636966",
"e  c #606769",
"r  c #646B6B",
"t  c #696F6D",
"y  c #6B716E",
"u  c #666E72",
"i  c #686E72",
"p  c #6C7373",
"a  c #6E7578",
"s  c #717674",
"d  c #747976",
"f  c #71767A",
"g  c #747A7B",
"h  c #797E7E",
"j  c #7B807D",
"k  c #767D82",
"l  c #787F83",
"z  c #7C8284",
"x  c #7D848A",
"c  c #818685",
"v  c #858986",
"b  c #81878A",
"n  c #858B8C",
"m  c #898E8C",
"M  c #8C918E",
"N  c #868D93",
"B  c #898F92",
"V  c #8C9294",
"C  c #8E9499",
"Z  c #919695",
"A  c #959996",
"S  c #90969A",
"D  c #93999D",
"F  c #9A9D9B",
"G  c #969DA2",
"H  c #999FA2",
"J  c #9CA1A4",
"K  c #9EA4AA",
"L  c #A1A5A3",
"P  c #A6AAA7",
"I  c #A1A6AC",
"U  c #A5AAAD",
"Y  c #AAADAC",
"T  c #AEB1AF",
"R  c #A1A7B0",
"E  c #A5ABB2",
"W  c #A9AEB4",
"Q  c #ACB1B5",
"!  c #AFB4BC",
"~  c #B2B5B3",
"^  c #B5B8B6",
"/  c #B0B5BD",
"(  c #B2B8BF",
")  c #B9BCBB",
"_  c #BEC0BF",
"`  c #B5BAC2",
"'  c #B9BEC5",
"]  c #BABFC8",
"[  c #BAC0C6",
"{  c #BDC2CA",
"}  c #C2C4C3",
"|  c #C5C8C6",
" . c #C1C6CD",
".. c #C4C8CF",
"X. c #CBCDCC",
"o. c #D0D1CF",
"O. c #C2C7D0",
"+. c #C5CAD1",
"@. c #C9CDD5",
"#. c #CBCFD9",
"$. c #CED1D4",
"%. c #CDD2DA",
"&. c #D1D3D2",
"*. c #D6D9D7",
"=. c #D1D5DD",
"-. c #D6D9DC",
";. c #DBDCDC",
":. c #D2D7E0",
">. c #D5DAE2",
",. c #DBDEE4",
"<. c #DBDFE9",
"1. c #DFE1E2",
"2. c #DEE1EA",
"3. c #E4E5E4",
"4. c #E6E8E7",
"5. c #E4E6E9",
"6. c #E7E8EB",
"7. c #EBECEC",
"8. c #EEF0EF",
"9. c #EAEDF3",
"0. c #EFF0F0",
"q. c #F3F3F3",
"w. c #F6F7F8",
"e. c #F7F8FB",
"r. c #FFFFFF",
/* pixels */
"r.r.r.r.r.r.r.r.r.r.r.r.r.r.r.r.r.r.r.r.r.r.r.r.r.r.r.r.r.r.r.r.r.r.r.r.r.r.r.r.r.r.r.r.r.r.r.r.r.r.r.r.r.r.r.r.r.r.r.r.r.r.r.r.r.r.r.r.r.r.r.r.r.r.r.r.r.r.r.r.r.r.",
"r.r.r.r.r.r.r.r.r.r.r.r.r.r.r.r.r.r.r.r.r.r.r.r.r.r.r.r.r.r.r.r.r.r.r.r.r.r.r.r.r.r.r.r.r.r.r.r.r.r.r.r.r.r.r.r.r.r.r.r.r.r.r.r.r.r.r.r.r.r.r.r.r.r.r.r.r.r.r.r.r.r.",
"r.r.r.r.r.r.r.r.r.r.r.r.r.r.r.r.r.r.r.r.r.r.r.r.r.r.r.r.r.r.r.r.r.r.r.r.r.r.r.r.r.r.r.r.r.r.r.r.r.r.r.r.r.r.r.r.r.r.r.r.r.r.r.r.r.r.r.r.r.r.r.r.r.r.r.r.r.r.r.r.r.r.",
"r.r.r.r.r.r.r.r.r.r.r.r.r.r.r.&.j j v J ^ &.4.8.q.w.e.r.r.r.r.r.r.r.r.r.r.r.r.r.r.r.r.r.r.r.r.r.r.r.r.r.r.r.r.r.r.r.r.r.r.r.r.r.r.r.r.r.r.r.r.r.r.r.r.r.r.r.r.r.r.r.",
"r.r.r.r.r.r.r.r.r.r.r.r.r.7.0 X 2 $ * # @ O o o O : 4 s v c n L ) } ;.9.r.r.r.r.r.r.r.r.r.r.r.e.r.r.r.r.r.r.r.r.r.r.r.r.r.r.r.r.r.r.r.r.r.r.r.r.r.r.r.r.r.r.r.r.r.r.",
"r.r.r.r.r.r.r.r.r.r.r.r.7.& : p m n 7 0 7 6 2 2 w 2 , * # & * = & & & * & 5 y z m A L ~ X.5.0.q.w.r.r.r.r.r.r.r.r.r.r.r.r.r.r.r.r.r.r.r.r.r.r.r.r.r.r.r.r.r.r.r.r.r.",
"r.r.r.r.r.r.r.r.r.r.r.r.h & s  .` / O.@./ Q L E Q I U W F v 0 = , 5 2 0 0 5 < ; - * # @ @ * 4 6 0 p d h m L ~ *.r.r.r.r.r.r.r.r.r.r.r.r.r.r.r.r.r.r.r.r.r.r.r.r.r.r.",
"r.r.r.r.r.r.r.r.r.r.r.w.- 4 E +....... ...{ { { [ { [ ' ' O.@.:.( W H F G V n v B i s r 4 1 2 1 > > ; : ; * & @ # @ X & q s V s A Y _ ;.4.7.q.r.r.r.r.r.r.r.r.r.r.r.",
"r.r.r.r.r.r.r.r.r.r.r.X.; & (  . . .] { { { ' ' ] ` ' ` ` ` ` / ` ' ' { ] { {  .O. .! ( W G R G c r x p 0 p 8 0 5 5 0 , & $ @ * % @ o & < 6 6 w y y Q U r.r.r.r.r.r.",
"r.r.r.r.r.r.r.r.r.r.r.P & 2 ..{ { { ' ' { ` ' ' ` ` ` ` ` / ` / ( ( / / / ! / ! ! ! / ! ` O.{  .@.@...%.#.%.=.{ { @.W b m h b 0 V A N r : < : * : ; # # . Z r.r.r.r.",
"r.r.r.r.r.r.r.r.r.r.r.M & p  .{ { { ' ' ' ' ` ` ` ` ` ` ` / ` / / ( ( / ! ! / / ! ` ` ' ` ` ! ` ! ( ( ! ! / ( ` ` ` [ ..[ [ ' ! { +.G V m z 0 p n w r r 7 @ p r.r.r.",
"r.r.r.r.r.r.r.r.r.r.r.t & V { { ' ` ' ' ( ` ` ` ` ` / ` / / / / / ! / / / / / ! ` K 3 r f l ! ] ! ! ! ( ( ( / ` ( ` ` ` ` ` ' ' ' ' { { { O.$.%.O.$.%...F 0 & 2 q.r.",
"r.r.r.r.r.r.r.r.r.r.r.* ; H { ' ' ` ' ` ` ` ` ( / ` / / / ` / / / / / / ! ! / ! ` N l W D x 3 S ' ! ! ! ( ( / ! ( ( ` ( ` ` ` ` ' ' ' ' ' { { { ......@.%.m : ; ; o.",
"r.r.r.r.r.r.r.r.r.r.8.. 8 L [ ' ` ` ` ` ` ` ( ` / / ( ( / ! / / / / Q / / / / ! ' k S ` `  .] ; [ ! ! ! ! / ` ( ( / ! ` ` ` ` ` ` ` ` ' ' ' [ { { ....@...V ; 2 : : ",
"r.r.r.r.r.r.r.r.r.r.~ # x Q ' ` ( ` ` ` ` ( ( / ( ( / / ! ! ! ! / / / ! ! / / ! ] i E ` ! W ] N N ` ! / / ! ! ! ( ( ! / ` ` ` ` ( ' ( ' ( ' { { {  .....} 0 < < 2 < ",
"r.r.r.r.r.r.r.r.r.r.M , v ..' ` ` ` ( ( ( / / ( ( / / / ! / ! ! ! / / / ! / ! ! ] p ! ! ` ! ` i Q / ! / / ! ( ! ! ! ` / ! / / ! ( ( ` ( ' ' ' { {  .....' : < 4 2 < ",
"r.r.r.r.r.r.r.r.r.r.P ; A [ ` ` ` ( ( ( ( ( ( ! ! ! / / Q ` ! ! ! ! ! ! ! ! ! ! { a { { ] +.C k ..! ! / / / / ! / ! ! / / ` / / ( ( ( ` ` ` ' [ [ { ..@.c ; < < 4 < ",
"r.r.r.r.r.r.r.r.r.8.y : / [ ` ` ` ( ! ( ( ! ! ! / ! ! ! ! ! ! ! ! ! ` ! ! ! ` ( [ u u u k u 0 [ ! ! / ! ! / / / Q / ! ! / / ` / ( ( ` ` ` [ ' [ [ [ { %.8 < 2 2 < < ",
"r.r.r.r.r.r.r.r.r.X.& 5 ..` ` ! ( / ` ! ! ! ! / / / ! / ! / / ` ! ! ! ! ` ( ` ` J D { ` R W O.` / ! ! / / / / ! / / Q ! / / ! / ( ( ! ` ` ` ' ' [ { O.( 6 : < 2 4 < ",
"r.r.r.r.r.r.r.r.r.Q # j { ` ` ` ! ( ( ! / ! / / / / / / ! ! ! ! ! / ( ( ( ! ! ] V R ' ` ' ' ! ! ` / ! ! ! / / ! / / ` ! Q / / / ( ! ( ` ` ` ` ' [ { { U d < < 2 < < ",
"r.r.r.r.r.r.r.r.r.> 8 J { ` ` ( / ` / / / / / / / ! / / ! ! / / ( ( / ( ` ! ` [ N ` ` ` ` ` ` ! ! / ` ! ! ! ! ( ! ! ! / ` ! ! ! ( ( ( ( ` ` ` ' [ [ [ ` 5 2 < < < 8 ",
"r.r.r.r.r.r.r.r.r.X 4 U [ ` ( ( / / ! / / / / ! / / ! ! / / ` / ( / ( ` ` ` ` ] z [ ` ` ` ` ` ! ` / / ( ( ( ! ! ! / ! ! ! ! ! / ! ( ! ` / ` ` ` ' [ ' W 8 : < < : d ",
"r.r.r.r.r.r.r.r.7.o 6 V [ ` ( ( / / / / / / / / ! ! ! / ` ! / / ! ` ( ` ` ` ' ` K { ` ` ` ` ` ` ` / ` / / ( ( ( / ! / / ! / ! / ! / ` ( ` ` ` ` ' ' [ C 8 : , , ; m ",
"r.r.r.r.r.r.r.r.[ + 0 ! ' ` ( ( ` ! Q / / ! / / ! / ` / ! ` ` ` ( ( ` ` ` ` ' [ { ] ] ' [ ` ` ` ` ` ` / ` ! ( ! ` / ! / ! / / / / ! / / / / ` ` ` ' ` Q 6 : < , & P ",
"r.r.r.r.r.r.r.r.M & p =.` ` ! ( ! ! / / ! ! ! ! / ` / / ` ` ] O.{ ..{ ] [ [ [ [ ' [ ] [ [ ' ` ` ` ` ` ` ` ` / ( / / / / / / / / ! ! / ` / / / ` ` ' E Z : : < > & o.",
"r.r.r.r.r.r.r.r.t 4 y @.( / ! ( ! ! / / ! ! ! / ` / ` / ] b r u g x S K R W Q [ @.#.O.O.[ ' ] ` ' ` ` ` ` ` ` ( ` / / ! / / ! / ! / / / / ` ` ` ` ` ! w : < < : 5 q.",
"r.r.r.r.r.r.r.r.w , U ..! ( ! ` ` Q / ! / ` ! ! / ! / ` ` C ` G x x z k x x x k f z N H / O...{ { {  .] ` ` ` ( ` / ` ` ! / ! / / Q ! / ` / ` ` ` ' =.; < < < : 6 r.",
"r.r.r.r.r.r.r.3.: 0 [ ! ( ` / ! ! / ! / ] ! ! ` / ` ` ` ` N W E =.X.` W R V V x x x x l p r p z b V H J / { ` ` / / / / ! / / / / / / ! / / / ` ` ' ~ < : < < & L r.",
"r.r.r.r.r.r.r.X.o s U ' ! ` / ! Q ` ! ` 9 ` ` ! / ` ` ` / S W ! r.r.r.r.r.w.w.q.3.-.@.W H N N N x l l b 7 ] ` ` ` ` / / / ! ` ! / / ! ! ! ` ! ! ` ` @.2 > < < % Y r.",
"r.r.r.r.r.r.r.T # m =.! / ! ! ! ! ! ! / 9 ` / ` / ( ` ` ` G W  .r.r.r.r.r.r.r.r.r.r.r.r.r.r.w.6.$.X.W ` - 5 +.` ` ` ` ! / / ! ! / / / / ! ` ! ` ` { m 2 : < < . w.r.",
"r.r.r.r.r.r.r.r 6 Z { / ` ! ! / ! ! ` G b ' ` ! ` ` ` ] J H E -.r.r.r.r.r.r.r.r.r.r.r.r.r.r.r.r.r.r.e.<.O 5 #.` ` ` ` / / ` ! / ! / ! ! ! ! ! ! ` Q 2 > < < : r r.r.",
"r.r.r.r.r.r.r.O 3 ' { / ! ! / / ! ! ` l J ` ! ` ` ` `  .n ! E ,.r.r.r.r.r.r.r.r.r.r.r.r.r.r.r.r.r.r.r.I # s +.` ` ` ` / / / ! / / / / ! ! ! ` ` ` J ; 2 < < * y r.r.",
"r.r.r.r.r.r.&.# 0 ,./ / / ! / / ! ! { a Q ` ( ( ` ` ' +.x ` R 7.r.r.r.r.r.r.r.r.r.r.r.r.r.r.r.r.r.r.r.c @ V ..' ' ( ` ( ( ( ( ! ` ! ! ! ! ! ! / O.p 2 > > 4 - h r.r.",
"r.r.r.r.r.r.} $ 7 O.` / ! ! / / ! ` ` p ' / ( ` ` ` ` { x ! ! e.r.r.r.r.r.r.r.r.r.r.r.r.r.r.r.r.r.r.r.p @ W { [ ' ` ` ` ( ! ( ! ! ! ! ! ! ! ! ! :.1 5 < < 1 $ L r.r.",
"r.r.r.r.r.r.d - 7 >./ / ! / ! / ! ` K x { ( / ` ` ` [ W F Q Q e.r.r.r.r.r.r.r.r.r.r.r.r.r.r.r.r.r.r.e.5 & { [ ' ' ` ` ' { +.{ { ` ` ! / ! / ! ' A 0 > 2 > 2 - _ r.r.",
"r.r.r.r.r.w.q 1 g #./ Q / / ! ! ! ` G N [ ` ` ` ` ] { J R W ' r.r.r.r.r.r.r.r.r.r.r.r.r.r.r.r.r.r.r.-.: 2 ..{ [ ' ' ' W 0 > 9 a b ` ! / / / ! ] B i < 2 2 > > q.r.r.",
"r.r.r.r.r.3.$ 2 H  .! / ! / / ! ! ` C H ` ! ` ` ` ] { G R E ] r.r.r.r.r.r.r.r.r.r.r.r.r.r.r.r.r.r.r.} * w +.{ { { { { = E { ! J S / / / ! / ! ' H 0 < 2 2 : 6 r.r.r.",
"r.r.r.r.r.X.+ 4 Q ' ! / / ! ! / ! ` x ! ` ` ` ` ' ` { G E K 5.r.r.r.r.r.r.r.r.r.r.r.r.r.r.r.r.r.r.r.E & h @.{ { { { x C { ' ` ' ' / ! / ! / Q @.f q < 4 2 & A r.r.r.",
"r.r.r.r.r.A $ q ) ! / ! / / ! / ` ' l ] / ` ` ` ' ' { V Q R 5.r.r.r.r.r.r.r.r.r.r.r.r.r.r.r.r.r.r.r.n # V %.{ { ] { k J ' ` ` ` / / ! / / / ! ` f < 4 4 4 O 3.r.r.r.",
"r.r.r.r.e.2 - a ` ! ! ! / / / ! ! ` G ] ` ` ` ' ' [ { N ! I r.r.r.r.r.r.r.r.r.r.r.r.r.r.r.r.r.r.r.r.0 * U @.{ { { +.u ` ` ` ! ` ! ` / / ! ! Q ] w 4 4 4 > 2 e.r.r.r.",
"r.r.r.r.r.* 2 r @.! ! / / Q / ! ! ` { ` ` ` ` ` ' ] ..V ! R r.r.r.r.r.r.r.r.r.r.r.r.r.r.r.r.r.r.r.r., ; { @...{ { ` k { ` ` ` ` ` / ! ` ! Q ] E 4 5 5 5 : w r.r.r.r.",
"r.r.r.r.o.= 6 U { ! ! ! / / ! / ! ! ! ` ` ` ` ` ' ' ` S W ' r.r.r.r.r.r.r.r.r.r.r.r.r.r.r.r.r.r.r.r.& & $.+.{ { { W x +.` ` ` ` / / ! ! ! ! =.4 0 4 5 2 & ;.r.r.r.r.",
"r.r.r.r.Y & n { ` / ! ! / / ! / ! ` ! ! ` ` ` ' ` ..G K W ..r.r.r.r.r.r.r.r.r.r.r.r.r.r.r.r.r.r.r.,.O : 2.{ { { { R N { ` ` ! ! ` / ! / ! ` ` r 4 4 2 < < r.r.r.r.r.",
"r.r.r.r.m ; E ` / / ! ! / / ! ! ! ! ` ! / ` ` ` `  .b ` R >.r.r.r.r.r.r.r.r.r.r.r.r.r.r.r.r.r.r.r.( % r >.{ { [ { J E ] ` ` ! ` / / / ! ! ` C i < 5 4 : d r.r.r.r.r.",
"r.r.r.r.t q ( ` / ` / ! / / / / ! ! ( ! / ` ` ` ` O.b ` E ,.r.r.r.r.r.r.r.r.r.r.r.r.r.r.r.r.r.r.r.D @ c %.{ { { [ ' k +.[ ` ! ( ! ! ! ! ! { S w 4 4 4 ; c r.r.r.r.r.",
"r.r.r.r.r p / ` / / ` ! / Q ! / / ! ! ( ` ! ` ` ` ' f / ' <.e.r.r.r.r.r.r.r.r.r.r.r.r.r.r.r.r.r.r.j @ J @.{ { [ ` O.J u C ` { ` ! ` / / ! { n 5 4 2 2 * v r.r.r.r.r.",
"r.r.r.e.> 0 U ` ` / ` / ` ! ! / ! / ! ` ` ( / ` ` ] S - $ 2 i n W ' *.2.w.r.r.r.r.r.r.r.r.r.r.r.w.8 & ' O.{ [ ' [ ` +.! G g u W / / / / !  .p 2 2 2 2 @ } r.r.r.r.r.",
"r.r.r.| o w / ' ` / / / ! ! / / / / ! ! ! / / ` ` `  .` V f 7 -   X % : 6 r n U | 9.r.r.r.r.r.r.7., < [ { [ [ ' ` ` ` { { { { ` / Q / / / { 6 4 2 2 < 8 e.r.r.r.r.r.",
"r.r.r.v # r { ` ` ` ! ( ( ! ! / / ~ / / / ` ! ! ` ` ` '  .+.#.=.>. .I m t 8 4 ; @ X o , r V ' *.' < 8  .{ [ ] ` ` ` ` ! ! ( ! ! / ! ! ! / / 4 4 4 2 - Z r.r.r.r.r.r.",
"r.r.r.5 ; r %.` ` ! ` ! ( ! ! / ! / / / / ! ! ` ` ` ` ' ' _ ] { { +.@.%.>.=.@...{ / F h 6 @ . o & * r +.[ [ ' ' ` ` ` ` ( ( ! ! / / ! ! `  .6 4 2 1 * T r.r.r.r.r.r.",
"r.r.7.: ; D { ` ` ` ` / ( / ! / / / ! / / ` / ! ` ` ` ` ' ] { { {  . . . ...+.+.$.$.%.=.>.2.:.' J n Z +.[ ' ' ` ` ` ` / ` ( ! / Q / ! ! @.m 9 > 4 < @ P r.r.r.r.r.r.",
"r.r.&.; = #.` ` ` ` ` ! / / ! / / ! / ! / ! ` ! ! ` ` ` ' ` ] ' [ { { }  . ...+...+....... ...O.+.@.+.[ [ ' ` ` ` ` / ! ( ! / / / / ! !  .r 4 4 > : w *.r.r.r.r.r.r.",
"r.r.L # 0 ..' ' ` ` ` ( ( ` / ! / / / ! ! ! / / ! ` ` ` ` ' ' ' ' [ [ { @.@.{ { ...... .{ { ..[ [ ' ' ' ' ' ` ` ` ( / ( ! ! ` ! / ! / ! ` w 6 < 4 # ~ r.r.r.r.r.r.r.",
"r.r.d & t { [ ' ' ( ` ` ( / ( ! / ! ! ! ! ` / ` ! ! / ` ` ` ` ' ' ' { %.n C #.{ { ..{ { { { [ [ { ' ' ' ` ` ` ` ` / ` / ! ! ! ! / ! / ! %.y 7 < 4 # X.r.r.r.r.r.r.r.",
"r.r.5 & v { [ ' ' ` ` ` ( ( ( ( ! / ! ! ! / ! / ` / ` ` ` ` ` ` ` { E r 0 f [ @.{ { {  .[ [ ' ' ' ' ' ` ` ` ` ` ( / ` ! ! / ! / ! ! ! ` ' r 4 < > > 3.r.r.r.r.r.r.r.",
"r.r.* ; m { { [ ' ` ` ` ` ( / ( ! / / ! ! ! / ! / / ` / ` ` ` ` ` ` : I x b 1 V ..{ [ [ ' ' ' ' ` ` ` ` ` ` / ` ( ! / ! / / / / ! ! ! ' F q > < : 6 q.r.r.r.r.r.r.r.",
"r.3.o : D ..{ [ ' ' ` ` ` ( ( ( / ! / / / / ! ! / ( ` / ! ` ! ` { x C #.i @...E { ' ' ' ' ' ` ` ` ` ` / ` ` ` / ( ( ( ! ! / / / ! ! ! { N < < < : y r.r.r.r.r.r.r.r.",
"r.) # 2 W ..{ [ ' ' ' ` ( ` ( ! / ! / ! / / ! ` ! ! / / / / / ` ` @.r C k ] ' ' ' ' ' ' ` ` ` ` ` ` ` ` / / / / / ( ! / / ! / / ` ! ! O.W p < < ; d r.r.r.r.r.r.r.r.",
"r.v & 5 @. .{ { [ ' ' ` ` ` ( ( ` ! ! / ! / Q / ! ! ! ! ` ! / ` ! ` ' u C ..' ` ` ' ' ` ` ` ` ` ` / ` / / / / / ! ! ( / Q / ! / ! ! ` ` V p : , & Z r.r.r.r.r.r.r.r.",
"r.0 ; j @. . .{ [ [ ' ` ` ` ( ( ! ` ! / / / / ! / / ` ! ! / ! ` / / ' ' i f ` ` ` ` ` ` ` ` / ` / / / / ` / ! ! ! / ! / / / / / ` ! [ W J 6 : , @ 3.r.r.r.r.r.r.r.r.",
"r.8 ; n +... . .[ [ [ ` ` ` ` ( / ` ! ! / ! ! / / / / ! ! ! ! / ` ' ] x ! K i [ ` ` ` ` ` ( ` / / ( ( / ! ! / / / ! ! ! / ! ! ! / ( / W m < > < : r.r.r.r.r.r.r.r.r.",
"3.: & Q  .+...{ { [ [ ' ' ` ` ( / / / / / ! ! ! / / / / ! / ` ! W N %.n ` O.x ' ` ` / ` / ( / ( ` / / / ! / / / / / / ! Q ` / ! ( ( [ m g < , ; 5 r.r.r.r.r.r.r.r.r.",
"~ % < { @.......{ { [ [ ' ` ` ` ` / / ` / ! / / / Q / / ! / ! ! W N 0 k ` u ! ` ` / ` / / ( / / / / / / / / ! ! / / ! ! ! ! ! ` ( ( +.l 5 : , ; t r.r.r.r.r.r.r.r.r.",
"j * r { %.+...{ ..{ [ [ ' ` ` ` ` / / / ` / / / / / ! / ! ! ! ` ` { ' G N Q { ! / / / / ( / / / / / ! / ! / ! ! ! / / / ! ! ` / / / +.y 4 , < & A r.r.r.r.r.r.r.r.r.",
"< : x ..$.@.+..... .{ [ ' ' ( ' ( ( ( ( ! ( ( ! ! ! ` ! ! ! ! / ! Q W W ] ` E ` ` ` ` W Q ` ! / / Q ! ! ! / / / ! ! ! ! ` ( ( ( ( ( ( s ; , < % ) r.r.r.r.r.r.r.r.r.",
": > d  .=.$.+.@... .{ { ' ' ' ( ' ( ( ( ` ! ! ` ( ( Q ! ! ! / ! ! ! ` ` W ` ` ` W ` ` ` / / / / ! ` ! ! / / ! ! ! ( ` ( ! ! ( ( ( ' J 0 : < : < 3.r.r.r.r.r.r.r.r.r.",
"s * j ) '  .+.W ( ..@...{ [ [ ' ` ` ' ( ` ( ( ! ( ! ( ( ! ! ! / ! ! ! ! ` ` W ` ` ` E ` / / / / / ! Q ! ` ! ! / ` ! ! ! ` ( ` ` ` { x : < < : < 7.r.r.r.r.r.r.r.r.r.",
"} @ > 0 6 r q 2 r t s c J / Q { +.{ [ [ ] [ [ ' ' ` ` ( / ! ! ! ! ! ! Q ` W ` W R ` E ` / ! / / ! ! ` ! ! / / ` ! ! ` ` ( ` ` ` ` O.g < : < : 8 r.r.r.r.r.r.r.r.r.r.",
"r.~ O : , < < > : ; : : 4 ; ; < 0 N z j g V J L H E ( / { %.%.O.{ { ] ` ! ! ! ! ` E ! ! ! / ! ! / / / / / ` ! / ` ` ` ! ` ` ` ` ` -.< > < < * d r.r.r.r.r.r.r.r.r.r.",
"r.r.} ; : < 2 < < < < : > > > : < , ; ; , < w 6 8 p t r r r g B n F E ' ] ' ' ' ] ` ] ` ! ! ! ! / / / ` / / / ` ` ` ` ` ` ` ` ' ' | : > < < # Y r.r.r.r.r.r.r.r.r.r.",
"r.r.r.1.< * < 2 < < < < < < < < < : < : < > : : > ; : > > , 5 0 7 0 7 0 f h J D N D G R O.#.O.+.] ' ` / / ` ` ` ` ` ` ` ' ' ' [ [ ' * > < < O 8.r.r.r.r.r.r.r.r.r.r.",
"r.r.r.r.r.t : & & & * & ; : < , < < < < < < < < < < 2 < < 2 , 2 2 < 2 2 2 7 g y e f k 0 6 9 h l z D W '  .` ] { { [ ' ` ' ' [ { %.r 6 : < ; ; r.r.r.r.r.r.r.r.r.r.r.",
"r.r.r.r.r.r.*.) ^ P M M t : X o o @ & & & ; ; ; : : > > < < < < 2 2 2 2 2 2 < < 2 2 2 2 2 5 6 6 4 2 1 w B c s n S D ` :.$.O.%.%.g f : , : y *.r.r.r.r.r.r.r.r.r.r.r.",
"r.r.r.r.r.r.r.r.r.r.r.r.r.r.r.r.4.X.Y F Z c y w w w 8 6 < < ; - @ % ; ; ; ; ; : , 2 5 2 2 2 2 2 2 1 < > > ; : 4 4 4 - > 8 j p 2 0 : , , : 2 r.r.r.r.r.r.r.r.r.r.r.r.",
"r.r.r.r.r.r.r.r.r.r.r.r.r.r.r.r.r.r.r.r.r.r.r.r.r.r.e.8.4.3.;.*.| } c y n c h y 8 : + + # $ & & * - - - - : ; : > > < < < : < < > < < < * j r.r.r.r.r.r.r.r.r.r.r.r.",
"r.r.r.r.r.r.r.r.r.r.r.r.r.r.r.r.r.r.r.r.r.r.r.r.r.r.r.r.r.r.r.r.r.r.r.r.r.r.r.r.r.r.r.r.r.7.&._ P L m c d w 6 # o # $ * & , < < < < < : @ 7.r.r.r.r.r.r.r.r.r.r.r.r.",
"r.r.r.r.r.r.r.r.r.r.r.r.r.r.r.r.r.r.r.r.r.r.r.r.r.r.r.r.r.r.r.r.r.r.r.r.r.r.r.r.r.r.r.r.r.r.r.r.e.r.r.r.r.e.q.,.1.| A z d * * & & ; & < 1.r.r.r.r.r.r.r.r.r.r.r.r.r.",
"r.r.r.r.r.r.r.r.r.r.r.r.r.r.r.r.r.r.r.r.r.r.r.r.r.r.r.r.r.r.r.r.r.r.r.r.r.r.r.r.r.r.r.r.r.r.r.r.r.r.r.r.r.r.r.r.r.r.r.r.r.r.r.3.} ) 4.r.r.r.r.r.r.r.r.r.r.r.r.r.r.r.",
"r.r.r.r.r.r.r.r.r.r.r.r.r.r.r.r.r.r.r.r.r.r.r.r.r.r.r.r.r.r.r.r.r.r.r.r.r.r.r.r.r.r.r.r.r.r.r.r.r.r.r.r.r.r.r.r.r.r.r.r.r.r.r.r.r.r.r.r.r.r.r.r.r.r.r.r.r.r.r.r.r.r.",
"r.r.r.r.r.r.r.r.r.r.r.r.r.r.r.r.r.r.r.r.r.r.r.r.r.r.r.r.r.r.r.r.r.r.r.r.r.r.r.r.r.r.r.r.r.r.r.r.r.r.r.r.r.r.r.r.r.r.r.r.r.r.r.r.r.r.r.r.r.r.r.r.r.r.r.r.r.r.r.r.r.r.",
"r.r.r.r.r.r.r.r.r.r.r.r.r.r.r.r.r.r.r.r.r.r.r.r.r.r.r.r.r.r.r.r.r.r.r.r.r.r.r.r.r.r.r.r.r.r.r.r.r.r.r.r.r.r.r.r.r.r.r.r.r.r.r.r.r.r.r.r.r.r.r.r.r.r.r.r.r.r.r.r.r.r.",
"r.r.r.r.r.r.r.r.r.r.r.r.r.r.r.r.r.r.r.r.r.r.r.r.r.r.r.r.r.r.r.r.r.r.r.r.r.r.r.r.r.r.r.r.r.r.r.r.r.r.r.r.r.r.r.r.r.r.r.r.r.r.r.r.r.r.r.r.r.r.r.r.r.r.r.r.r.r.r.r.r.r."
};
