/* XPM */
static char *_____________[] = {
/* columns rows colors chars-per-pixel */
"32 32 85 1",
"  c #242D27",
". c #2B342E",
"X c #323A36",
"o c #363E3A",
"O c #3A423D",
"+ c #3E4541",
"@ c #424A46",
"# c #454D4A",
"$ c #484F4B",
"% c #4A514D",
"& c #4E5552",
"* c #535A56",
"= c #565D5A",
"- c #585F5C",
"; c #5B615E",
": c #5D6462",
"> c #616763",
", c #636965",
"< c #646C6B",
"1 c #696E6E",
"2 c #6B726F",
"3 c #6D7372",
"4 c #717675",
"5 c #747B7A",
"6 c #7B807D",
"7 c #7C8283",
"8 c #7E8588",
"9 c #838786",
"0 c #838986",
"q c #818788",
"w c #868B8B",
"e c #8A8F8C",
"r c #8D928F",
"t c #848B91",
"y c #898F94",
"u c #8B9193",
"i c #8F959A",
"p c #929694",
"a c #979A97",
"s c #91979B",
"d c #93999E",
"f c #9DA19E",
"g c #969DA2",
"h c #989FA5",
"j c #9CA1A5",
"k c #9FA5AA",
"l c #A2A5A3",
"z c #A1A7AD",
"x c #A3A9AD",
"c c #AAAEAC",
"v c #ADB1AF",
"b c #A6ACB2",
"n c #A9AEB3",
"m c #ABB1B7",
"M c #AFB4BC",
"N c #B2B5B3",
"B c #B0B6BD",
"V c #B2B8BF",
"C c #BBBEBC",
"Z c #BEC0BE",
"A c #B3B7C0",
"S c #B5BAC2",
"D c #B9BEC5",
"F c #BBC0C7",
"G c #BDC2CA",
"H c #C1C3C2",
"J c #C1C6CE",
"K c #C3C8CF",
"L c #CACCCA",
"P c #CED0CE",
"I c #C2C7D0",
"U c #C5CBD2",
"Y c #C9CED6",
"T c #CDD1D5",
"R c #CED2DA",
"E c #D3D5D4",
"W c #D6D8D7",
"Q c #DCDDDC",
"! c #D4D7E0",
"~ c #DADDE5",
"^ c #E4E5E5",
"/ c #E7E9EB",
"( c #ECEDEC",
") c #F4F4F4",
"_ c #FFFFFF",
/* pixels */
"________________________________",
"_____E,1waNLQ)__________________",
"____/+Vluu81%##&%;5wsmLQ^)______",
"____j7RGGGGGGFFFSmxiy85*%;%$*2(_",
"____4lJSSSBBMMMAttbSSSFGJICmVn+W",
"____*VSSSBBMMMMFuGtAMABAAADGK~*+",
"____;JSBAMMMMMMG7jiAMMMBVVSDJDO%",
"___P1GBBMMMMMMSbBBSAMMMMMBVSJj@%",
"___euDVMBMMBAASkFSSMMMMMMBVAGd+;",
"___,bABBMBAmbMFGGFFFSAAMMMVAFqO6",
"___*GBMBBBSjgi878udkFSAMMMBAK>Ov",
"__)=GBBhkADh/___)^YF=FSAMBMBF*XQ",
"__Z7DBBgASDi)_______&GSAAAMSj+O)",
"__ueAMAsFSAj_______)=GGzimAD7@%_",
"__-mBMAgSDbb_______T2UAiMmBF3@3_",
"__.SBMVMSFxF_______xyUjSAAMG-+v_",
"_~:FMBBBSGjY_______9xIjGVMMk&o__",
"_CdSMBMBVDs~_______;FGbkDMDi#@__",
"_0iSBMBMBDk<<49lFQ_%TDFMkMD5@6__",
"_%MDBMBMBBDIYYJSlw33USVVAMD<Oc__",
"_OTSVBMBBBADDUDUYUUUSSVMMMG%O)__",
"^#YSSBMBBBBSDy3mGFDSSSVMBBB#&___",
"C,YDSVBMBMBVSsbDDSSVVVMMMBB@:___",
"pdUFSSBMMBMMBAyBSVVMMMMBMSkof___",
":SUGDSBBMMBBMyhVVBMMMBMMMG3XC___",
"+R!TYGDDVVMMMBSBMMBBBMMVAF*X(___",
"p@--37jjnMDGGDSVABBBMBVADA+o____",
"_l.XXooo++#%:1tgjbMDGJGFJzO;____",
"__(EHfr3>=*#+OoooX++;:3sj=XL____",
"_____________((^ELNjr2*X .#_____",
"_________________________/______",
"________________________________"
};
